<svg width="75" height="90" viewBox="0 0 75 90" fill="none" xmlns="http://www.w3.org/2000/svg">
<g clip-path="url(#clip0)">
<path d="M52.5808 60.2711C52.9323 60.4249 53.196 60.7032 53.3278 61.0328C53.4597 61.3624 53.467 61.7433 53.3205 62.0948C53.1667 62.4464 52.8884 62.7101 52.5588 62.8419C52.2292 62.9737 51.8483 62.9811 51.4968 62.8346C49.4533 61.963 47.7541 60.6153 46.3259 58.8722C44.9196 57.151 43.7917 55.0416 42.8981 52.6173C40.7961 51.3209 38.7526 50.3468 36.7678 49.6949C34.7683 49.0357 32.8273 48.6915 30.945 48.6769C29.1579 48.6549 27.4147 48.9186 25.7082 49.4679C24.0749 49.9952 22.4782 50.7789 20.9182 51.8189C21.8117 52.6173 22.632 53.5035 23.3718 54.4776C24.1628 55.5177 24.8586 56.6603 25.4665 57.9054C25.635 58.2496 25.6496 58.6305 25.5324 58.9674L25.5251 58.982C25.4079 59.3116 25.1662 59.5973 24.822 59.7657C24.4777 59.9342 24.0969 59.9488 23.76 59.8316L23.7453 59.8243C23.4157 59.7071 23.1301 59.4654 22.9616 59.1212C22.0827 57.3194 20.9841 55.7667 19.6731 54.4703C18.362 53.1666 16.8386 52.1119 15.1101 51.2916C13.3376 50.4493 11.3454 49.8487 9.14815 49.4752C6.94356 49.1017 4.53389 48.9552 1.91915 49.0284C1.53829 49.0357 1.18672 48.8893 0.923052 48.6476C0.666705 48.4059 0.498248 48.0616 0.490923 47.6734C0.483599 47.2926 0.630084 46.941 0.871783 46.6773C1.11348 46.421 1.45772 46.2525 1.8459 46.2452C4.67305 46.1646 7.29512 46.3258 9.70479 46.7433C12.1218 47.1607 14.319 47.8346 16.2966 48.7721C16.7214 48.9698 17.1315 49.1822 17.5271 49.4093C17.8933 49.6144 18.2448 49.8268 18.5891 50.0465C20.5153 48.6549 22.5002 47.6148 24.5437 46.919C26.6237 46.2086 28.7624 45.8717 30.967 45.8937C32.7541 45.9156 34.5778 46.1793 36.4309 46.692C38.1667 47.1681 39.9245 47.8639 41.7189 48.7721C41.6677 48.5523 41.6091 48.3399 41.5578 48.1202C41.4773 47.7687 41.3967 47.4098 41.3161 47.0362C40.5764 43.5499 40.1296 39.6388 39.8732 35.4493C39.6242 31.3478 39.5583 26.9679 39.5949 22.4488C36.1892 23.6061 32.82 24.756 29.3996 25.8692C28.1911 26.4112 27.0778 26.6822 26.0524 26.6895C25.0197 26.7042 24.0749 26.4552 23.218 25.9791C22.405 25.5323 21.6945 24.8805 21.072 24.0602C20.4567 23.2472 19.9221 22.2657 19.468 21.1451C18.4719 19.5411 17.4465 17.9371 16.4797 16.3258C15.696 15.0147 15.2492 13.7623 15.1394 12.5611C15.0368 11.3526 15.2785 10.2027 15.8718 9.11142C16.4211 8.09336 17.2707 7.16318 18.4353 6.30625C19.5852 5.46396 21.028 4.69492 22.7785 4.00644C26.0524 2.88584 29.5168 1.72129 32.82 0.71787C34.0578 0.271092 35.259 0.0293931 36.4162 9.62359e-05C37.5808 -0.0292006 38.7014 0.153905 39.778 0.564061C40.8107 0.959569 41.7922 1.55283 42.715 2.35849C43.6232 3.15683 44.4729 4.16025 45.2639 5.37607C49.468 8.05674 53.1008 11.3819 56.2209 15.2931C59.341 19.2115 61.9411 23.7086 64.0798 28.7184C66.2111 33.7062 67.8884 39.2066 69.1628 45.1393C70.4372 51.0645 71.3161 57.4293 71.8581 64.1603C72.8103 66.8995 73.5134 69.3751 73.8576 71.5797C74.2092 73.8063 74.1945 75.7472 73.7185 77.3878C73.2058 79.1822 72.195 80.5958 70.5983 81.6065C69.0163 82.6026 66.8557 83.1959 64.0139 83.357C57.0266 85.1368 50.4348 86.5797 44.2678 87.6563C38.0935 88.7403 32.3513 89.4581 27.0632 89.7877C21.7165 90.1173 16.8386 90.044 12.4587 89.546C8.07881 89.0406 4.19698 88.1031 0.84981 86.7042C0.498248 86.5577 0.234576 86.2794 0.0954155 85.9498C-0.0437446 85.6202 -0.0510688 85.2394 0.0954155 84.8878C0.2419 84.5362 0.52022 84.2726 0.84981 84.1334C1.1794 83.9942 1.56026 83.9869 1.91182 84.1334C5.04659 85.4444 8.71602 86.3233 12.8908 86.7994C17.0656 87.2682 21.7458 87.3341 26.8874 87.0191C32.0803 86.6969 37.7419 85.9864 43.8503 84.9098C49.9514 83.8404 56.4919 82.4049 63.4353 80.6324C63.4499 80.6324 63.4572 80.6251 63.4719 80.6251C63.5085 80.6178 63.5378 80.6105 63.5744 80.6031C65.53 80.3102 66.9582 80.442 68.8039 79.3946C69.9758 78.7281 70.6936 77.798 71.0305 76.6188C71.4113 75.3004 71.3894 73.6524 71.0598 71.7042C70.7229 69.7486 70.071 67.4928 69.1921 64.9806C69.1628 64.9146 69.1408 64.8414 69.1189 64.7682C69.1042 64.6949 69.0896 64.6217 69.0822 64.5411C68.5549 57.9054 67.698 51.6505 66.4528 45.8351C65.2077 40.0196 63.5817 34.651 61.509 29.8023C59.4582 24.9977 56.968 20.6983 53.987 16.963C51.0061 13.235 47.5417 10.0782 43.528 7.55869C43.4401 7.50742 43.3523 7.43418 43.279 7.36094C43.2058 7.28769 43.1398 7.1998 43.0813 7.11191L43.0739 7.09726C42.4294 6.06455 41.7409 5.22226 41.0305 4.57041C40.32 3.91855 39.573 3.4498 38.7966 3.15683C38.0422 2.87119 37.2512 2.74668 36.4089 2.77597C35.5666 2.80527 34.6804 2.98838 33.7502 3.32529C30.425 4.43125 27.0852 5.50791 23.76 6.59922C22.3244 7.16318 21.1525 7.77109 20.2443 8.4083C19.3435 9.04551 18.7063 9.71201 18.3254 10.4078C17.9885 11.0304 17.864 11.7115 17.9519 12.4439C18.0398 13.191 18.3474 14.004 18.8747 14.8756L21.8923 19.7462C21.8996 19.7535 21.9069 19.7682 21.9069 19.7755L21.9582 19.8634C21.9802 19.9 21.9948 19.9366 22.0022 19.9659L22.0095 19.9806C22.3537 20.8521 22.7346 21.5919 23.1667 22.1925C23.5915 22.7857 24.0529 23.2325 24.5656 23.5182C25.0344 23.7745 25.5617 23.899 26.1696 23.8697C26.7922 23.8404 27.488 23.6573 28.279 23.3058C28.3083 23.2911 28.3449 23.2765 28.3815 23.2618C28.4182 23.2472 28.4548 23.2325 28.4914 23.2179L29.7585 22.8077C30.0881 21.4527 30.403 20.3395 30.6594 19.4386L30.6667 19.4239C30.8791 18.6769 31.0695 18.1495 31.194 17.8053C31.2746 17.5782 31.3772 17.5489 31.3479 17.505C31.3259 17.4757 31.2453 17.6222 30.989 17.7979C30.5129 18.1349 29.7146 18.6915 28.3376 19.2481L27.6931 19.5045C27.3342 19.651 26.9533 19.629 26.6311 19.4898C26.3015 19.3507 26.0305 19.087 25.884 18.7281C25.7448 18.3692 25.7595 17.9957 25.8986 17.6661C26.0378 17.3365 26.3015 17.0655 26.6604 16.919C26.8728 16.8312 27.0925 16.7506 27.3049 16.6627C31.0622 15.1466 32.6809 14.502 33.655 15.9522C34.2775 16.8751 33.9333 18.0763 33.34 20.1783L33.3327 20.2076C33.2009 20.669 33.0544 21.1891 32.9006 21.7603L40.5617 19.1529L40.591 19.1456C40.6569 19.1236 40.7229 19.109 40.7888 19.1017C40.862 19.087 40.9426 19.087 41.0231 19.087C41.404 19.0943 41.7556 19.2481 42.0046 19.5045C42.2536 19.7608 42.4074 20.1051 42.4001 20.4933C42.3342 25.3346 42.3708 30.0294 42.6052 34.4166C42.8396 38.7965 43.2863 42.8614 44.0407 46.443C44.7658 49.878 45.7766 52.8517 47.1755 55.2101C48.5598 57.5758 50.3322 59.3043 52.5808 60.2711Z" fill="#FAFF04"/>
</g>
<defs>
<clipPath id="clip0">
<rect width="74.0991" height="90" fill="white"/>
</clipPath>
</defs>
</svg>
