<svg width="90" height="32" viewBox="0 0 90 32" fill="none" xmlns="http://www.w3.org/2000/svg">
<g clip-path="url(#clip0)">
<path fill-rule="evenodd" clip-rule="evenodd" d="M76.1284 17.5559C80.0762 17.5559 83.2769 20.7565 83.2769 24.7043C83.2769 28.6521 80.0762 31.8527 76.1284 31.8527C72.1807 31.8527 68.98 28.6521 68.98 24.7043C68.98 20.7565 72.1807 17.5559 76.1284 17.5559ZM16.8462 21.2912V23.862H19.417C19.1094 22.6022 18.1133 21.5988 16.8462 21.2912ZM19.4243 25.5393H16.8462V28.1101C18.1133 27.8098 19.1094 26.8063 19.4243 25.5393ZM15.169 28.1174V25.5466H12.5982C12.9058 26.8064 13.9092 27.8024 15.169 28.1174ZM12.5982 23.8693H15.169V21.2985C13.9092 21.5988 12.9058 22.6022 12.5982 23.8693ZM76.9707 21.2912V23.862H79.5415C79.2339 22.6022 78.2378 21.5988 76.9707 21.2912ZM79.5415 25.5393H76.9707V28.1101C78.2378 27.8098 79.2339 26.8063 79.5415 25.5393ZM75.2935 28.1174V25.5466H72.7227C73.0303 26.8064 74.0264 27.8024 75.2935 28.1174ZM72.7153 23.8693H75.2861V21.2985C74.0264 21.5988 73.0303 22.6022 72.7153 23.8693ZM36.1016 9.36738C34.9736 9.11103 33.853 9.11104 32.7251 9.1623C41.5508 4.52607 45.0151 1.51582 55.3496 2.12373L53.9287 11.55L36.9146 12.1945C37.0684 11.7478 37.1563 11.5061 37.1856 11.0593C37.2661 9.78486 37.2515 9.63105 36.1016 9.36738ZM57.9497 2.29219L56.104 11.4255L73.7774 10.7077C75.5938 10.6345 75.9087 9.83613 74.8101 8.30537C74.312 7.60957 73.7554 6.92109 73.1182 6.23994C68.5479 1.36201 63.9995 2.37275 57.9497 2.29219ZM0.337414 19.9802H0.879407C1.21632 18.486 1.88282 17.1384 2.86427 15.9299C5.01759 13.2492 5.99904 13.5861 9.19972 13.0075L27.1148 9.63105C31.0918 6.80391 35.8892 4.28437 41.7412 2.16035C47.1685 0.182812 50.999 -0.00761816 56.8071 -0.000293941C60.1323 0.00703028 63.5015 0.204784 66.9219 0.61494C68.6577 0.724804 70.3569 0.959179 72.0269 1.29609C74.0264 1.69892 75.9893 2.25557 77.9155 2.91475L85.0933 7.06025C87.21 8.2834 87.6641 9.71162 87.9351 12.048L88.9458 20.676H89.9932V25.444C89.8467 27.048 89.2168 27.2897 87.8838 27.2897H86.148C86.8218 12.2092 65.6035 9.63106 66.0649 28.4836H25.4595C28.1914 15.4831 15.0811 10.9714 8.64308 18.4055C6.68751 20.6687 6.00636 23.7595 6.18214 27.4143H1.48732C1.11378 27.2385 0.820813 26.9968 0.601086 26.6965C-0.167957 25.6491 0.000500382 22.4924 0.0590941 20.6687C0.0664183 20.1779 -0.0873902 19.9802 0.337414 19.9802ZM16.0112 17.5559C19.959 17.5559 23.1597 20.7565 23.1597 24.7043C23.1597 28.6521 19.959 31.8527 16.0112 31.8527C12.0635 31.8527 8.86281 28.6521 8.86281 24.7043C8.86281 20.7565 12.0635 17.5559 16.0112 17.5559Z" fill="#FAFF04"/>
</g>
<defs>
<clipPath id="clip0">
<rect width="90" height="31.853" fill="white"/>
</clipPath>
</defs>
</svg>
