<svg width="60" height="60" viewBox="0 0 60 60" fill="none" xmlns="http://www.w3.org/2000/svg">
<path d="M30 60C13.434 60 0 46.566 0 30C0 13.434 13.434 0 30 0C46.566 0 60 13.434 60 30C60 46.566 46.566 60 30 60Z" fill="url(#paint0_linear)"/>
<path d="M30.0001 13.212C35.4661 13.212 36.1141 13.23 38.2741 13.332C40.2721 13.422 41.3581 13.758 42.0781 14.04C43.0321 14.412 43.7161 14.856 44.4301 15.57C45.1441 16.284 45.5881 16.968 45.9601 17.922C46.2421 18.642 46.5721 19.728 46.6681 21.726C46.7641 23.886 46.7881 24.534 46.7881 30C46.7881 35.466 46.7701 36.114 46.6681 38.274C46.5781 40.272 46.2421 41.358 45.9601 42.078C45.5881 43.032 45.1441 43.716 44.4301 44.43C43.7161 45.144 43.0321 45.588 42.0781 45.96C41.3581 46.242 40.2721 46.572 38.2741 46.668C36.1141 46.764 35.4661 46.788 30.0001 46.788C24.5341 46.788 23.8861 46.77 21.7261 46.668C19.7281 46.578 18.6421 46.242 17.9221 45.96C16.9681 45.588 16.2841 45.144 15.5701 44.43C14.8561 43.716 14.4121 43.032 14.0401 42.078C13.7581 41.358 13.4281 40.272 13.3321 38.274C13.2361 36.114 13.2121 35.466 13.2121 30C13.2121 24.534 13.2301 23.886 13.3321 21.726C13.4221 19.728 13.7581 18.642 14.0401 17.922C14.4121 16.968 14.8561 16.284 15.5701 15.57C16.2841 14.856 16.9681 14.412 17.9221 14.04C18.6421 13.758 19.7281 13.428 21.7261 13.332C23.8861 13.23 24.5341 13.212 30.0001 13.212ZM30.0001 9.52197C24.4381 9.52197 23.7421 9.54597 21.5581 9.64797C19.3801 9.74997 17.8921 10.092 16.5841 10.602C15.2401 11.118 14.0941 11.82 12.9601 12.96C11.8201 14.1 11.1241 15.24 10.5961 16.59C10.0921 17.892 9.74411 19.38 9.64211 21.564C9.54011 23.748 9.51611 24.444 9.51611 30.006C9.51611 35.568 9.54011 36.264 9.64211 38.448C9.74411 40.626 10.0861 42.114 10.5961 43.422C11.1181 44.76 11.8201 45.906 12.9601 47.04C14.1001 48.18 15.2401 48.876 16.5901 49.404C17.8921 49.908 19.3801 50.256 21.5641 50.358C23.7481 50.46 24.4441 50.484 30.0061 50.484C35.5681 50.484 36.2641 50.46 38.4481 50.358C40.6261 50.256 42.1141 49.914 43.4221 49.404C44.7601 48.882 45.9061 48.18 47.0401 47.04C48.1801 45.9 48.8761 44.76 49.4041 43.41C49.9081 42.108 50.2561 40.62 50.3581 38.436C50.4601 36.252 50.4841 35.556 50.4841 29.994C50.4841 24.432 50.4601 23.736 50.3581 21.552C50.2561 19.374 49.9141 17.886 49.4041 16.578C48.8821 15.24 48.1801 14.094 47.0401 12.96C45.9001 11.82 44.7601 11.124 43.4101 10.596C42.1081 10.092 40.6201 9.74397 38.4361 9.64197C36.2581 9.54597 35.5621 9.52197 30.0001 9.52197Z" fill="white"/>
<path d="M29.9999 19.4819C24.1919 19.4819 19.4819 24.1919 19.4819 29.9999C19.4819 35.8079 24.1919 40.5179 29.9999 40.5179C35.8079 40.5179 40.5179 35.8079 40.5179 29.9999C40.5179 24.1919 35.8079 19.4819 29.9999 19.4819ZM29.9999 36.8279C26.2319 36.8279 23.1719 33.7739 23.1719 29.9999C23.1719 26.2259 26.2319 23.1719 29.9999 23.1719C33.7679 23.1719 36.8279 26.2259 36.8279 29.9999C36.8279 33.7739 33.7679 36.8279 29.9999 36.8279Z" fill="white"/>
<path d="M40.9322 21.5279C42.2908 21.5279 43.3922 20.4265 43.3922 19.0679C43.3922 17.7093 42.2908 16.6079 40.9322 16.6079C39.5735 16.6079 38.4722 17.7093 38.4722 19.0679C38.4722 20.4265 39.5735 21.5279 40.9322 21.5279Z" fill="white"/>
<defs>
<linearGradient id="paint0_linear" x1="8.78679" y1="51.2132" x2="51.2132" y2="8.78679" gradientUnits="userSpaceOnUse">
<stop stop-color="#FFD521"/>
<stop offset="0.0551048" stop-color="#FFD020"/>
<stop offset="0.1241" stop-color="#FEC01E"/>
<stop offset="0.2004" stop-color="#FCA71B"/>
<stop offset="0.2821" stop-color="#FA8316"/>
<stop offset="0.3681" stop-color="#F85510"/>
<stop offset="0.4563" stop-color="#F51E09"/>
<stop offset="0.5" stop-color="#F30005"/>
<stop offset="0.5035" stop-color="#F20007"/>
<stop offset="0.5966" stop-color="#E1003B"/>
<stop offset="0.6879" stop-color="#D30067"/>
<stop offset="0.7757" stop-color="#C70088"/>
<stop offset="0.8589" stop-color="#BF00A0"/>
<stop offset="0.9357" stop-color="#BB00AF"/>
<stop offset="1" stop-color="#B900B4"/>
</linearGradient>
</defs>
</svg>
