<svg width="183" height="64" viewBox="0 0 183 64" fill="none" xmlns="http://www.w3.org/2000/svg">
<path d="M0 10C0 4.47715 4.47715 0 10 0H173C178.523 0 183 4.47715 183 10V54C183 59.5228 178.523 64 173 64H10C4.47716 64 0 59.5228 0 54V10Z" fill="#2B303B"/>
<path d="M23.2578 38.0234L33.0078 9.875H37.9297L25.2734 44H21.2891L8.65625 9.875H13.5547L23.2578 38.0234Z" fill="#FF0404"/>
<path d="M72.1875 54H67.6641V38.2266H50.4609V54H45.9609V19.875H50.4609V34.5469H67.6641V19.875H72.1875V54Z" fill="#FF0404"/>
<path d="M78.4854 27V14.2031H82.0977C83.2109 14.2031 84.1953 14.4492 85.0508 14.9414C85.9062 15.4336 86.5654 16.1338 87.0283 17.042C87.4971 17.9502 87.7344 18.9932 87.7402 20.1709V20.9883C87.7402 22.1953 87.5059 23.2529 87.0371 24.1611C86.5742 25.0693 85.9092 25.7666 85.042 26.2529C84.1807 26.7393 83.1758 26.9883 82.0273 27H78.4854ZM80.1729 15.5918V25.6201H81.9482C83.249 25.6201 84.2598 25.2158 84.9805 24.4072C85.707 23.5986 86.0703 22.4473 86.0703 20.9531V20.2061C86.0703 18.7529 85.7275 17.625 85.042 16.8223C84.3623 16.0137 83.3955 15.6035 82.1416 15.5918H80.1729Z" fill="white"/>
<path d="M94.6396 18.9492C94.3936 18.9082 94.127 18.8877 93.8398 18.8877C92.7734 18.8877 92.0498 19.3418 91.6689 20.25V27H90.043V17.4902H91.625L91.6514 18.5889C92.1846 17.7393 92.9404 17.3145 93.9189 17.3145C94.2354 17.3145 94.4756 17.3555 94.6396 17.4375V18.9492Z" fill="white"/>
<path d="M97.9092 27H96.2832V17.4902H97.9092V27ZM96.1514 14.9678C96.1514 14.7041 96.2305 14.4814 96.3887 14.2998C96.5527 14.1182 96.793 14.0273 97.1094 14.0273C97.4258 14.0273 97.666 14.1182 97.8301 14.2998C97.9941 14.4814 98.0762 14.7041 98.0762 14.9678C98.0762 15.2314 97.9941 15.4512 97.8301 15.627C97.666 15.8027 97.4258 15.8906 97.1094 15.8906C96.793 15.8906 96.5527 15.8027 96.3887 15.627C96.2305 15.4512 96.1514 15.2314 96.1514 14.9678Z" fill="white"/>
<path d="M103.657 24.7939L106.013 17.4902H107.674L104.264 27H103.024L99.5791 17.4902H101.24L103.657 24.7939Z" fill="white"/>
<path d="M111.005 27H109.379V17.4902H111.005V27ZM109.247 14.9678C109.247 14.7041 109.326 14.4814 109.484 14.2998C109.648 14.1182 109.889 14.0273 110.205 14.0273C110.521 14.0273 110.762 14.1182 110.926 14.2998C111.09 14.4814 111.172 14.7041 111.172 14.9678C111.172 15.2314 111.09 15.4512 110.926 15.627C110.762 15.8027 110.521 15.8906 110.205 15.8906C109.889 15.8906 109.648 15.8027 109.484 15.627C109.326 15.4512 109.247 15.2314 109.247 14.9678Z" fill="white"/>
<path d="M115.153 17.4902L115.206 18.6855C115.933 17.7715 116.882 17.3145 118.054 17.3145C120.063 17.3145 121.077 18.4482 121.095 20.7158V27H119.469V20.707C119.463 20.0215 119.305 19.5146 118.994 19.1865C118.689 18.8584 118.212 18.6943 117.562 18.6943C117.034 18.6943 116.571 18.835 116.173 19.1162C115.774 19.3975 115.464 19.7666 115.241 20.2236V27H113.615V17.4902H115.153Z" fill="white"/>
<path d="M123.16 22.166C123.16 20.6836 123.503 19.5059 124.188 18.6328C124.874 17.7539 125.782 17.3145 126.913 17.3145C128.073 17.3145 128.979 17.7246 129.629 18.5449L129.708 17.4902H131.193V26.7715C131.193 28.002 130.827 28.9717 130.095 29.6807C129.368 30.3896 128.39 30.7441 127.159 30.7441C126.474 30.7441 125.803 30.5977 125.146 30.3047C124.49 30.0117 123.989 29.6104 123.644 29.1006L124.487 28.125C125.185 28.9863 126.037 29.417 127.045 29.417C127.836 29.417 128.451 29.1943 128.891 28.749C129.336 28.3037 129.559 27.6768 129.559 26.8682V26.0508C128.908 26.8008 128.021 27.1758 126.896 27.1758C125.782 27.1758 124.88 26.7275 124.188 25.8311C123.503 24.9346 123.16 23.7129 123.16 22.166ZM124.795 22.3506C124.795 23.4229 125.015 24.2666 125.454 24.8818C125.894 25.4912 126.509 25.7959 127.3 25.7959C128.325 25.7959 129.078 25.3301 129.559 24.3984V20.0566C129.061 19.1484 128.313 18.6943 127.317 18.6943C126.526 18.6943 125.908 19.002 125.463 19.6172C125.018 20.2324 124.795 21.1436 124.795 22.3506Z" fill="white"/>
<path d="M100.296 47H98.6084V34.2031H100.296V47Z" fill="white"/>
<path d="M104.673 37.4902L104.726 38.6855C105.452 37.7715 106.401 37.3145 107.573 37.3145C109.583 37.3145 110.597 38.4482 110.614 40.7158V47H108.988V40.707C108.982 40.0215 108.824 39.5146 108.514 39.1865C108.209 38.8584 107.731 38.6943 107.081 38.6943C106.554 38.6943 106.091 38.835 105.692 39.1162C105.294 39.3975 104.983 39.7666 104.761 40.2236V47H103.135V37.4902H104.673Z" fill="white"/>
<path d="M118.604 44.4775C118.604 44.0381 118.437 43.6982 118.103 43.458C117.774 43.2119 117.197 43.001 116.371 42.8252C115.551 42.6494 114.897 42.4385 114.411 42.1924C113.931 41.9463 113.573 41.6533 113.339 41.3135C113.11 40.9736 112.996 40.5693 112.996 40.1006C112.996 39.3213 113.324 38.6621 113.98 38.123C114.643 37.584 115.486 37.3145 116.512 37.3145C117.59 37.3145 118.463 37.5928 119.131 38.1494C119.805 38.7061 120.142 39.418 120.142 40.2852H118.507C118.507 39.8398 118.316 39.4561 117.936 39.1338C117.561 38.8115 117.086 38.6504 116.512 38.6504C115.92 38.6504 115.457 38.7793 115.123 39.0371C114.789 39.2949 114.622 39.6318 114.622 40.0479C114.622 40.4404 114.777 40.7363 115.088 40.9355C115.398 41.1348 115.958 41.3252 116.767 41.5068C117.581 41.6885 118.24 41.9053 118.744 42.1572C119.248 42.4092 119.62 42.7139 119.86 43.0713C120.106 43.4229 120.229 43.8535 120.229 44.3633C120.229 45.2129 119.89 45.8955 119.21 46.4111C118.53 46.9209 117.648 47.1758 116.564 47.1758C115.803 47.1758 115.129 47.041 114.543 46.7715C113.957 46.502 113.497 46.127 113.163 45.6465C112.835 45.1602 112.671 44.6357 112.671 44.0732H114.297C114.326 44.6182 114.543 45.0518 114.947 45.374C115.357 45.6904 115.896 45.8486 116.564 45.8486C117.18 45.8486 117.672 45.7256 118.041 45.4795C118.416 45.2275 118.604 44.8936 118.604 44.4775Z" fill="white"/>
<path d="M124.554 35.1875V37.4902H126.329V38.7471H124.554V44.6445C124.554 45.0254 124.633 45.3125 124.791 45.5059C124.949 45.6934 125.219 45.7871 125.6 45.7871C125.787 45.7871 126.045 45.752 126.373 45.6816V47C125.945 47.1172 125.529 47.1758 125.125 47.1758C124.398 47.1758 123.851 46.9561 123.481 46.5166C123.112 46.0771 122.928 45.4531 122.928 44.6445V38.7471H121.196V37.4902H122.928V35.1875H124.554Z" fill="white"/>
<path d="M132.833 38.9492C132.587 38.9082 132.32 38.8877 132.033 38.8877C130.967 38.8877 130.243 39.3418 129.862 40.25V47H128.236V37.4902H129.818L129.845 38.5889C130.378 37.7393 131.134 37.3145 132.112 37.3145C132.429 37.3145 132.669 37.3555 132.833 37.4375V38.9492Z" fill="white"/>
<path d="M140.207 46.0596C139.574 46.8037 138.646 47.1758 137.421 47.1758C136.407 47.1758 135.634 46.8828 135.101 46.2969C134.573 45.7051 134.307 44.832 134.301 43.6777V37.4902H135.927V43.6338C135.927 45.0752 136.513 45.7959 137.685 45.7959C138.927 45.7959 139.753 45.333 140.163 44.4072V37.4902H141.789V47H140.242L140.207 46.0596Z" fill="white"/>
<path d="M148.082 45.8486C148.662 45.8486 149.169 45.6729 149.603 45.3213C150.036 44.9697 150.276 44.5303 150.323 44.0029H151.861C151.832 44.5479 151.645 45.0664 151.299 45.5586C150.953 46.0508 150.49 46.4434 149.91 46.7363C149.336 47.0293 148.727 47.1758 148.082 47.1758C146.787 47.1758 145.756 46.7451 144.988 45.8838C144.227 45.0166 143.846 43.833 143.846 42.333V42.0605C143.846 41.1348 144.016 40.3115 144.355 39.5908C144.695 38.8701 145.182 38.3105 145.814 37.9121C146.453 37.5137 147.206 37.3145 148.073 37.3145C149.14 37.3145 150.024 37.6338 150.728 38.2725C151.437 38.9111 151.814 39.7402 151.861 40.7598H150.323C150.276 40.1445 150.042 39.6406 149.62 39.248C149.204 38.8496 148.688 38.6504 148.073 38.6504C147.247 38.6504 146.605 38.9492 146.148 39.5469C145.697 40.1387 145.472 40.9971 145.472 42.1221V42.4297C145.472 43.5254 145.697 44.3691 146.148 44.9609C146.6 45.5527 147.244 45.8486 148.082 45.8486Z" fill="white"/>
<path d="M155.896 35.1875V37.4902H157.671V38.7471H155.896V44.6445C155.896 45.0254 155.975 45.3125 156.133 45.5059C156.291 45.6934 156.561 45.7871 156.941 45.7871C157.129 45.7871 157.387 45.752 157.715 45.6816V47C157.287 47.1172 156.871 47.1758 156.467 47.1758C155.74 47.1758 155.192 46.9561 154.823 46.5166C154.454 46.0771 154.27 45.4531 154.27 44.6445V38.7471H152.538V37.4902H154.27V35.1875H155.896Z" fill="white"/>
<path d="M158.972 42.1572C158.972 41.2256 159.153 40.3877 159.517 39.6436C159.886 38.8994 160.396 38.3252 161.046 37.9209C161.702 37.5166 162.449 37.3145 163.287 37.3145C164.582 37.3145 165.628 37.7627 166.425 38.6592C167.228 39.5557 167.629 40.748 167.629 42.2363V42.3506C167.629 43.2764 167.45 44.1084 167.093 44.8467C166.741 45.5791 166.234 46.1504 165.572 46.5605C164.916 46.9707 164.16 47.1758 163.305 47.1758C162.016 47.1758 160.97 46.7275 160.167 45.8311C159.37 44.9346 158.972 43.748 158.972 42.2715V42.1572ZM160.606 42.3506C160.606 43.4053 160.85 44.252 161.336 44.8906C161.828 45.5293 162.484 45.8486 163.305 45.8486C164.131 45.8486 164.787 45.5264 165.273 44.8818C165.76 44.2314 166.003 43.3232 166.003 42.1572C166.003 41.1143 165.754 40.2705 165.256 39.626C164.764 38.9756 164.107 38.6504 163.287 38.6504C162.484 38.6504 161.837 38.9697 161.345 39.6084C160.853 40.2471 160.606 41.1611 160.606 42.3506Z" fill="white"/>
<path d="M174.265 38.9492C174.019 38.9082 173.752 38.8877 173.465 38.8877C172.398 38.8877 171.675 39.3418 171.294 40.25V47H169.668V37.4902H171.25L171.276 38.5889C171.81 37.7393 172.565 37.3145 173.544 37.3145C173.86 37.3145 174.101 37.3555 174.265 37.4375V38.9492Z" fill="white"/>
</svg>
