<svg width="81" height="78" viewBox="0 0 81 78" fill="none" xmlns="http://www.w3.org/2000/svg">
<g filter="url(#filter0_d)">
<path d="M4 10C4 4.47715 8.47715 0 14 0H67C72.5228 0 77 4.47715 77 10V60C77 65.5228 72.5228 70 67 70H14C8.47715 70 4 65.5228 4 60V10Z" fill="white"/>
</g>
<path d="M25.6016 38.1484L35.3516 10H40.2734L27.6172 44.125H23.6328L11 10H15.8984L25.6016 38.1484Z" fill="#FF0404"/>
<path d="M69.2266 61.125H64.7031V45.3516H47.5V61.125H43V27H47.5V41.6719H64.7031V27H69.2266V61.125Z" fill="#FF0404"/>
<defs>
<filter id="filter0_d" x="0" y="0" width="81" height="78" filterUnits="userSpaceOnUse" color-interpolation-filters="sRGB">
<feFlood flood-opacity="0" result="BackgroundImageFix"/>
<feColorMatrix in="SourceAlpha" type="matrix" values="0 0 0 0 0 0 0 0 0 0 0 0 0 0 0 0 0 0 127 0"/>
<feOffset dy="4"/>
<feGaussianBlur stdDeviation="2"/>
<feColorMatrix type="matrix" values="0 0 0 0 0 0 0 0 0 0 0 0 0 0 0 0 0 0 0.25 0"/>
<feBlend mode="normal" in2="BackgroundImageFix" result="effect1_dropShadow"/>
<feBlend mode="normal" in="SourceGraphic" in2="effect1_dropShadow" result="shape"/>
</filter>
</defs>
</svg>
