<svg width="60" height="60" viewBox="0 0 60 60" fill="none" xmlns="http://www.w3.org/2000/svg">
<path fill-rule="evenodd" clip-rule="evenodd" d="M30 0C13.0986 0 0 12.3803 0 29.1007C0 37.8471 3.58547 45.4045 9.42258 50.6258C9.91148 51.0664 10.2073 51.6762 10.2314 52.3341L10.3944 57.6701C10.4487 59.3723 12.2052 60.477 13.7626 59.7948L19.7143 57.1691C20.2213 56.9457 20.7827 56.9036 21.3139 57.0484C24.0483 57.8029 26.9638 58.2013 30 58.2013C46.9015 58.2013 60 45.821 60 29.1007C60 12.3803 46.9015 0 30 0Z" fill="url(#paint0_linear)"/>
<path fill-rule="evenodd" clip-rule="evenodd" d="M11.9818 37.6152L20.7946 23.6353C22.195 21.414 25.2011 20.8586 27.3017 22.4341L34.3097 27.6916C34.9557 28.1745 35.8369 28.1686 36.4768 27.6856L45.9415 20.5025C47.2032 19.5427 48.857 21.0579 48.0059 22.3979L39.1992 36.3718C37.7986 38.5931 34.7927 39.1484 32.6921 37.573L25.684 32.3154C25.0381 31.8325 24.1568 31.8385 23.517 32.3215L14.0461 39.5106C12.7846 40.4703 11.1306 38.9552 11.9818 37.6152Z" fill="white"/>
<defs>
<linearGradient id="paint0_linear" x1="30" y1="2.88867e-05" x2="30" y2="60" gradientUnits="userSpaceOnUse">
<stop stop-color="#00B2FF"/>
<stop offset="1" stop-color="#006AFF"/>
</linearGradient>
</defs>
</svg>
