<svg width="90" height="77" viewBox="0 0 90 77" fill="none" xmlns="http://www.w3.org/2000/svg">
<g clip-path="url(#clip0)">
<path d="M38.8843 2.1167H39.3823H39.6387C40.6725 2.18017 41.6414 2.64229 42.3413 3.40576C52.4854 14.187 62.8491 25.3784 72.6929 36.4087C73.1217 36.8672 73.4998 37.3706 73.8208 37.9102L73.9087 38.064C74.2062 38.588 74.4515 39.1399 74.6411 39.7119C75.2673 41.4914 75.3439 43.4181 74.8608 45.2417C74.3729 47.0777 73.3538 48.7288 71.9312 49.9878L45.4102 73.6597L45.1904 73.8721C44.7568 74.265 44.2886 74.618 43.7915 74.9268L43.6597 75C43.1584 75.2969 42.6284 75.5423 42.0776 75.7324L41.9604 75.7764C41.4147 75.9593 40.8532 76.0917 40.2832 76.1719C39.6522 76.2565 39.0143 76.2786 38.3789 76.2378C37.7465 76.2043 37.1187 76.1111 36.5039 75.9595C35.8969 75.8005 35.3079 75.5796 34.7461 75.3003C34.1892 75.0234 33.6595 74.6948 33.1641 74.3188L33.0908 74.2603C32.6169 73.8858 32.1781 73.4691 31.7798 73.0151L3.28125 41.0742L3.15674 40.9204C2.51245 40.1222 2.19564 39.109 2.27051 38.0859L2.32178 37.4194L0 4.2334C0 4.07227 0 3.91113 0 3.75732V3.66211C0.0962476 2.72574 0.512772 1.8513 1.1792 1.18652C1.87029 0.488701 2.79213 0.0668414 3.77197 0L4.30664 0L38.1665 2.19727H38.4888H38.8843V2.1167ZM26.6089 29.7803L24.7046 27.8687C24.6359 27.8006 24.5815 27.7196 24.5443 27.6303C24.5071 27.5411 24.4879 27.4453 24.4879 27.3486C24.4879 27.2519 24.5071 27.1562 24.5443 27.067C24.5815 26.9777 24.6359 26.8967 24.7046 26.8286L26.9019 24.6313C26.9699 24.5627 27.051 24.5082 27.1402 24.471C27.2295 24.4338 27.3252 24.4147 27.4219 24.4147C27.5186 24.4147 27.6143 24.4338 27.7035 24.471C27.7928 24.5082 27.8738 24.5627 27.9419 24.6313L29.9341 26.6235L30.0366 26.5576C30.7561 26.0972 31.5314 25.7305 32.3438 25.4663C33.9111 24.9599 35.59 24.9091 37.1851 25.3198H37.2363C38.0511 25.5406 38.8304 25.876 39.5508 26.3159C40.3381 26.797 41.0637 27.3726 41.7114 28.0298C41.7812 28.098 41.8366 28.1795 41.8745 28.2694C41.9123 28.3593 41.9318 28.4559 41.9318 28.5535C41.9318 28.651 41.9123 28.7476 41.8745 28.8375C41.8366 28.9275 41.7812 29.0089 41.7114 29.0771L36.958 33.8232C36.8899 33.8919 36.8089 33.9464 36.7197 33.9836C36.6304 34.0207 36.5347 34.0399 36.438 34.0399C36.3413 34.0399 36.2456 34.0207 36.1563 33.9836C36.0671 33.9464 35.9861 33.8919 35.918 33.8232C35.5647 33.4535 35.1631 33.1333 34.7241 32.8711C34.4873 32.7249 34.2182 32.6394 33.9404 32.6221H33.8965C33.6684 32.621 33.4423 32.6633 33.23 32.7466C33.0107 32.8421 32.8118 32.9789 32.644 33.1494C32.5132 33.2753 32.3999 33.4182 32.3071 33.5742C32.2413 33.6827 32.1942 33.8016 32.168 33.9258V33.9624C32.1497 34.0789 32.1497 34.1975 32.168 34.314C32.1781 34.4383 32.2103 34.5598 32.2632 34.6729C32.3256 34.8212 32.4016 34.9634 32.4902 35.0977C32.5874 35.2373 32.6978 35.3673 32.8198 35.4858C32.9451 35.6136 33.0824 35.7289 33.23 35.8301C33.351 35.9075 33.4815 35.969 33.6182 36.0132C33.7575 36.061 33.9031 36.0881 34.0503 36.0938H34.0942C34.2756 36.0952 34.4567 36.0829 34.6362 36.0571C34.896 36.0177 35.1529 35.9615 35.4053 35.8887C35.7129 35.8081 36.0498 35.6982 36.4087 35.5737C37.2729 35.2368 38.0786 34.9512 38.8257 34.7095C39.5728 34.4678 40.3784 34.2334 41.1182 34.043H41.1621C41.8811 33.856 42.6174 33.7431 43.3594 33.7061C44.0804 33.6699 44.8032 33.719 45.5127 33.8525C46.2662 34.0016 46.9892 34.2764 47.6514 34.6655C48.3851 35.1022 49.0596 35.6314 49.6582 36.2402C50.248 36.8248 50.7578 37.4848 51.1743 38.2031C51.5571 38.8892 51.8314 39.6304 51.9873 40.4004C52.1336 41.1479 52.1706 41.9127 52.0972 42.6709C52.0161 43.4496 51.8288 44.2135 51.5405 44.9414C51.2339 45.7142 50.8434 46.4511 50.376 47.1387L50.1489 47.4609L52.3462 49.6582C52.4148 49.7263 52.4693 49.8073 52.5065 49.8965C52.5437 49.9858 52.5628 50.0815 52.5628 50.1782C52.5628 50.2749 52.5437 50.3706 52.5065 50.4599C52.4693 50.5491 52.4148 50.6302 52.3462 50.6982L50.1489 52.8955C49.8633 53.1812 48.9771 52.7637 48.6841 52.478L46.875 50.6396C46.4648 50.9326 46.0474 51.2109 45.6152 51.46C44.4816 52.104 43.241 52.5382 41.9531 52.7417H41.9678C41.3135 52.8223 40.6518 52.8223 39.9976 52.7417C39.3092 52.6685 38.6312 52.5187 37.9761 52.2949H37.9395C37.2276 52.0393 36.5508 51.6948 35.9253 51.2695C35.2191 50.7907 34.5616 50.2436 33.9624 49.6362C33.8926 49.568 33.8372 49.4866 33.7994 49.3966C33.7615 49.3067 33.742 49.2101 33.742 49.1125C33.742 49.015 33.7615 48.9184 33.7994 48.8285C33.8372 48.7385 33.8926 48.6571 33.9624 48.5889L38.7085 43.8428C38.7767 43.773 38.8582 43.7176 38.9481 43.6797C39.038 43.6419 39.1346 43.6224 39.2322 43.6224C39.3297 43.6224 39.4263 43.6419 39.5163 43.6797C39.6062 43.7176 39.6876 43.773 39.7559 43.8428C39.9877 44.0643 40.2323 44.2722 40.4883 44.4653C40.6854 44.6145 40.8963 44.7445 41.1182 44.8535C41.2974 44.9379 41.4837 45.0065 41.6748 45.0586C41.8326 45.1006 41.995 45.1227 42.1582 45.1245C42.316 45.1276 42.4736 45.1104 42.627 45.0732C42.7714 45.0409 42.9115 44.9917 43.0444 44.9268H43.0884C43.2284 44.8604 43.3609 44.7793 43.4839 44.6851C43.6248 44.5812 43.7571 44.4661 43.8794 44.3408C44.1375 44.1168 44.3278 43.8251 44.4287 43.4985C44.4465 43.3722 44.4465 43.244 44.4287 43.1177V43.0737C44.4193 42.965 44.3921 42.8587 44.3481 42.7588C44.2986 42.6217 44.2322 42.4913 44.1504 42.3706C44.0634 42.2406 43.9627 42.1203 43.8501 42.0117C43.6759 41.8351 43.4873 41.6734 43.2861 41.5283C43.1417 41.433 42.9869 41.3543 42.8247 41.2939H42.7734C42.6384 41.2489 42.4981 41.2218 42.356 41.2134C42.1686 41.1925 41.9794 41.1925 41.792 41.2134C41.5438 41.2535 41.299 41.3123 41.0596 41.3892C40.7739 41.4771 40.4663 41.5869 40.1221 41.7261C39.2725 42.0703 38.4595 42.3706 37.6758 42.6416H37.6318C36.8555 42.9126 36.1084 43.147 35.4346 43.3374C34.7177 43.542 33.9812 43.6696 33.2373 43.7183C32.5211 43.7584 31.8027 43.7092 31.0986 43.5718H31.0547C30.3197 43.4188 29.6162 43.1414 28.9746 42.7515C28.2423 42.3102 27.5702 41.776 26.9751 41.1621C26.1228 40.3522 25.4661 39.3588 25.0549 38.2573C24.6437 37.1557 24.4889 35.975 24.6021 34.8047C24.6752 34.0212 24.85 33.2506 25.1221 32.5122C25.4189 31.7391 25.8022 31.002 26.2646 30.3149C26.3892 30.1245 26.521 29.9414 26.6528 29.7656L26.6089 29.7803ZM60.791 73.3228C60.6036 73.5219 60.3769 73.68 60.1252 73.7871C59.8735 73.8942 59.6024 73.9479 59.3289 73.9449C59.0554 73.9418 58.7856 73.8821 58.5363 73.7694C58.2871 73.6568 58.064 73.4937 57.881 73.2904C57.6981 73.0871 57.5593 72.8481 57.4734 72.5884C57.3875 72.3287 57.3564 72.0541 57.3821 71.7818C57.4078 71.5095 57.4897 71.2455 57.6226 71.0065C57.7555 70.7674 57.9366 70.5586 58.1543 70.3931L84.8145 46.5454C85.1832 46.2322 85.4825 45.8456 85.6934 45.4102C86.0778 44.5624 86.1352 43.6024 85.8545 42.7148C85.6924 42.2721 85.4433 41.8662 85.1221 41.521L54.8291 8.56201C54.4736 8.17351 54.287 7.65971 54.3104 7.13364C54.3337 6.60756 54.5651 6.11231 54.9536 5.75684C55.3421 5.40136 55.8559 5.21477 56.382 5.23812C56.9081 5.26147 57.4033 5.49285 57.7588 5.88135L88.0664 38.8403C88.0926 38.8655 88.1171 38.8924 88.1396 38.9209C88.7858 39.6584 89.2833 40.514 89.6045 41.4404C90.2481 43.3223 90.1272 45.3817 89.2676 47.1753C88.8273 48.0593 88.2176 48.8482 87.4731 49.4971L60.791 73.3228ZM18.479 11.3452C19.2993 11.3569 20.1089 11.5338 20.8594 11.8652C21.6096 12.1981 22.2867 12.676 22.8516 13.2715C23.4215 13.859 23.8696 14.5535 24.1699 15.3149C24.4785 16.0855 24.6327 16.9092 24.624 17.7393C24.624 17.8125 24.624 17.8857 24.624 17.959C24.5841 18.7167 24.408 19.461 24.104 20.1562C23.753 20.909 23.2549 21.5838 22.6392 22.1411L22.522 22.2437C21.947 22.7666 21.2819 23.1811 20.5591 23.4668C19.8091 23.753 19.0105 23.8898 18.208 23.8696C17.3825 23.8751 16.5648 23.7106 15.8057 23.3862C14.2781 22.7062 13.0751 21.4585 12.4512 19.9072C12.1537 19.1398 12.0142 18.3202 12.041 17.4976C12.0512 16.6653 12.228 15.8434 12.561 15.0806C13.2601 13.5386 14.5352 12.3318 16.1133 11.7188C16.8763 11.4244 17.691 11.2873 18.5083 11.3159L18.479 11.3452ZM39.2139 6.21826C39.0161 6.21826 38.855 6.21826 38.6646 6.21826C38.4848 6.2442 38.3023 6.2442 38.1226 6.21826L4.13086 4.021L6.44531 37.229C6.45628 37.3533 6.45628 37.4783 6.44531 37.6025L6.38672 38.335L34.856 70.3125C35.078 70.5778 35.3231 70.8229 35.5884 71.0449L35.6323 71.0815C35.911 71.2942 36.2103 71.4782 36.5259 71.6309C36.8386 71.779 37.1648 71.8967 37.5 71.9824C37.8627 72.0723 38.2329 72.1287 38.606 72.1509C38.9737 72.1879 39.3442 72.1879 39.7119 72.1509C40.0227 72.107 40.3291 72.0359 40.6274 71.9385H40.708C40.9964 71.8377 41.2737 71.7076 41.5356 71.5503L41.6235 71.499C41.9295 71.3015 42.2164 71.0759 42.4805 70.8252L42.561 70.7446C51.1377 62.644 60.7397 55.0708 69.2212 46.875C70.0337 46.1615 70.6172 45.2238 70.8984 44.1797C71.0791 43.5049 71.1249 42.8011 71.0332 42.1086C70.9414 41.4161 70.714 40.7485 70.3638 40.144L70.2905 40.0269C70.1239 39.7472 69.9301 39.4847 69.7119 39.2432L39.353 6.25488L39.2139 6.21826Z" fill="#FAFF04"/>
</g>
<defs>
<clipPath id="clip0">
<rect width="90" height="76.2671" fill="white"/>
</clipPath>
</defs>
</svg>
