<svg width="90" height="71" viewBox="0 0 90 71" fill="none" xmlns="http://www.w3.org/2000/svg">
<g clip-path="url(#clip0)">
<path d="M82.1258 40.277C81.7633 40.0221 81.3765 39.9328 80.9576 40.006C80.5387 40.0793 80.2003 40.2953 79.9505 40.6571L78.5816 42.5973C78.0873 42.3871 77.5731 42.2179 77.0421 42.0795C76.5111 41.9411 75.9757 41.8341 75.4396 41.7558L74.9965 39.215C74.9218 38.7858 74.7123 38.4511 74.3629 38.2043C74.0128 37.9582 73.6261 37.8754 73.1976 37.9501L70.0087 38.506C69.6008 38.5778 69.2712 38.7858 69.0148 39.1374C68.7643 39.4882 68.675 39.8757 68.7504 40.3041L69.1562 42.631C68.6449 42.8493 68.1542 43.0968 67.6921 43.3773C67.2233 43.6578 66.7861 43.9603 66.3796 44.2848L64.2285 42.7958C63.8879 42.5424 63.5107 42.4464 63.0866 42.5211C62.6684 42.5936 62.3352 42.8134 62.0796 43.1708L60.2368 45.798C59.9819 46.1605 59.8933 46.5472 59.9666 46.9654C60.0398 47.3844 60.2559 47.7235 60.6169 47.9732L62.5578 49.3421C62.3476 49.8365 62.1785 50.3507 62.0393 50.8817C61.9009 51.4127 61.7947 51.9481 61.7156 52.4842L59.1748 52.9273C58.7463 53.002 58.4109 53.2107 58.1648 53.5608C57.9187 53.9109 57.8352 54.2977 57.9099 54.7261L58.4666 57.9151C58.5376 58.323 58.7456 58.6526 59.0972 58.9089C59.448 59.1594 59.8354 59.2488 60.2646 59.1733L62.5908 58.7676C62.8091 59.2788 63.0566 59.7688 63.3371 60.2317C63.6184 60.7004 63.9231 61.1479 64.2505 61.5749L62.7556 63.6953C62.5022 64.0359 62.407 64.413 62.4809 64.8371C62.5542 65.2553 62.7732 65.5886 63.1306 65.8442L65.7636 67.7177C66.1225 67.9514 66.5078 68.0305 66.926 67.9572C67.3442 67.884 67.6855 67.6789 67.9389 67.3383L69.3027 65.3659C69.7963 65.5761 70.3105 65.7453 70.8422 65.8837C71.3725 66.0229 71.9079 66.1291 72.4447 66.2075L72.8871 68.7489C72.9618 69.1774 73.1713 69.5129 73.5206 69.759C73.8707 70.0043 74.2575 70.0885 74.6859 70.0138L77.8749 69.4572C78.2828 69.3862 78.6124 69.1774 78.8687 68.8266C79.12 68.4758 79.2086 68.0883 79.1331 67.6591L78.7274 65.3322C79.2386 65.114 79.7293 64.8671 80.1922 64.5866C80.6602 64.3054 81.1077 64.0007 81.5355 63.6733L83.6551 65.1682C83.9964 65.4216 84.3787 65.5161 84.8072 65.4406C85.2415 65.3645 85.5689 65.1469 85.804 64.7924L87.6775 62.1601C87.9104 61.8013 87.9895 61.416 87.917 60.9978C87.843 60.5796 87.638 60.2383 87.2981 59.9849L85.3257 58.6218C85.5359 58.1267 85.7051 57.6126 85.8435 57.0816C85.982 56.5513 86.0882 56.0152 86.1673 55.479L88.708 55.0367C89.1365 54.9612 89.4719 54.7525 89.718 54.4024C89.9648 54.0523 90.0476 53.6663 89.9729 53.2371L89.417 50.0482C89.3452 49.6402 89.1372 49.3099 88.7857 49.0543C88.4348 48.8023 88.0474 48.7144 87.6189 48.7892L85.292 49.1949C85.0774 48.7042 84.8306 48.2193 84.5486 47.7462C84.2652 47.2679 83.962 46.8248 83.6382 46.4183L85.1272 44.268C85.3807 43.9266 85.4759 43.5494 85.4019 43.1254C85.3287 42.7072 85.1097 42.3739 84.7522 42.1183L82.1258 40.277ZM72.8607 47.7887C73.7103 47.64 74.5416 47.6598 75.3597 47.8487C76.1727 48.0436 76.9088 48.3687 77.565 48.8258C78.2176 49.2887 78.7728 49.8709 79.2313 50.5704C79.6854 51.2764 79.9857 52.0513 80.1336 52.9017C80.2823 53.752 80.2618 54.5833 80.0736 55.4007C79.8787 56.2144 79.5528 56.949 79.0951 57.606C78.6329 58.2593 78.0514 58.8137 77.3512 59.2722C76.6459 59.7263 75.871 60.0266 75.0206 60.1753C74.1703 60.3232 73.339 60.3035 72.5216 60.1145C71.7079 59.9197 70.9726 59.5945 70.3163 59.1367C69.663 58.6738 69.1086 58.0923 68.6501 57.3928C68.196 56.6868 67.8957 55.9119 67.747 55.0616C67.5991 54.2112 67.6188 53.3799 67.8078 52.5626C68.0026 51.7488 68.3278 51.0135 68.7856 50.3565C69.2477 49.7047 69.83 49.1495 70.5294 48.691C71.2362 48.2369 72.0104 47.9366 72.8607 47.7887ZM48.349 9.92863C48.2171 9.79606 48.0941 9.70671 47.9813 9.6591C47.8744 9.61369 47.7396 9.59172 47.5777 9.59172C47.4129 9.59172 47.276 9.61516 47.1654 9.6613C47.0482 9.71037 46.9303 9.79533 46.8131 9.91545L46.7992 9.92863L43.7435 12.9747C43.14 13.5753 42.2062 13.6412 41.5302 13.174C41.1867 12.9535 40.8183 12.7382 40.4286 12.5272C40.0038 12.298 39.5959 12.0951 39.2018 11.9149C38.7865 11.7252 38.3603 11.5458 37.9252 11.3766C37.5451 11.2287 37.1057 11.0727 36.6127 10.9108C35.8796 10.6691 35.4138 9.98722 35.4145 9.25481H35.4138V4.56881C35.4138 4.39816 35.3889 4.25167 35.3391 4.13009C35.2915 4.01217 35.2138 3.90085 35.1084 3.79391L35.1054 3.79684C34.9948 3.68698 34.8835 3.60861 34.7722 3.5632C34.6506 3.5134 34.5041 3.48923 34.3335 3.48923H28.4544C28.2991 3.48923 28.1673 3.5112 28.0589 3.55661C27.9373 3.60642 27.8128 3.69357 27.6846 3.81735C27.5806 3.92209 27.5044 4.03048 27.4575 4.14254C27.4085 4.25973 27.3836 4.40109 27.3836 4.56735V8.85637C27.3836 9.71476 26.7639 10.4281 25.9473 10.5739C25.4844 10.6845 25.064 10.7965 24.6919 10.9108C24.2708 11.0397 23.8445 11.1877 23.4131 11.3554C23.0059 11.5121 22.5892 11.6894 22.1636 11.8856C21.7366 12.0834 21.3433 12.2797 20.9866 12.4745C20.2982 12.8495 19.4669 12.7111 18.9359 12.1874L18.9351 12.1881L15.5514 8.85344C15.5375 8.83953 15.5243 8.82634 15.5111 8.81243H15.5104C15.4042 8.70037 15.298 8.6198 15.1918 8.57366C15.0944 8.53118 14.9691 8.50921 14.8146 8.50921C14.6608 8.50921 14.5289 8.53338 14.4176 8.58025C14.288 8.63518 14.1605 8.72454 14.036 8.84612L9.92717 12.9645L9.92424 12.9674L9.92717 12.9711C9.79533 13.1029 9.70598 13.2252 9.65837 13.338C9.61296 13.445 9.59099 13.5797 9.59099 13.7416C9.59099 13.9056 9.61369 14.0433 9.66057 14.1539C9.71037 14.2711 9.7946 14.389 9.91471 14.5062L9.9279 14.5201L12.974 17.5758C13.5746 18.18 13.6405 19.1131 13.1732 19.7899C12.9528 20.1326 12.7374 20.5011 12.5265 20.8914C12.2973 21.3155 12.0944 21.7235 11.9142 22.1175C11.7238 22.5335 11.5443 22.9598 11.3759 23.3948C11.2279 23.7757 11.0719 24.2151 10.9093 24.7073C10.6676 25.4405 9.98576 25.9063 9.25334 25.9063V25.907H4.56954C4.39816 25.907 4.25167 25.9319 4.13083 25.981C4.01217 26.0293 3.90158 26.1048 3.79831 26.2088L3.79172 26.2154C3.68845 26.3186 3.61228 26.4292 3.56394 26.5479C3.51486 26.6695 3.48996 26.8159 3.48996 26.9866V32.8664C3.48996 33.021 3.51267 33.1528 3.55734 33.2619C3.60715 33.3828 3.69431 33.5073 3.81882 33.6362L3.82028 33.6377C3.92502 33.7409 4.03341 33.8164 4.14401 33.8625C4.2612 33.9109 4.40255 33.9358 4.56954 33.9358H8.85784C9.71623 33.9358 10.4296 34.5561 10.5754 35.3728C10.6852 35.8335 10.7965 36.2509 10.9108 36.6223L10.9123 36.6215C11.0478 37.0639 11.1957 37.4924 11.3568 37.9069C11.5121 38.3097 11.6916 38.736 11.8937 39.185C12.1024 39.6464 12.3017 40.058 12.4899 40.4191C12.851 41.1105 12.7008 41.933 12.1749 42.456L12.1764 42.4567L8.84099 45.7826L8.81316 45.8097H8.81389C8.70183 45.9166 8.62127 46.0221 8.57513 46.129C8.53265 46.2264 8.51067 46.3517 8.51067 46.5062C8.51067 46.6593 8.53484 46.7919 8.58172 46.9025C8.63738 47.0343 8.72893 47.1632 8.85418 47.2906L12.9323 51.4163C13.0531 51.5269 13.1754 51.6075 13.2992 51.6558C13.4245 51.7049 13.5731 51.7305 13.7438 51.7305C13.9166 51.7305 14.0675 51.7056 14.1964 51.6544C14.3173 51.6068 14.433 51.5321 14.5421 51.4295L17.5633 48.3607C18.1646 47.7491 19.1073 47.6759 19.7906 48.1476C20.1334 48.3673 20.5025 48.5833 20.8929 48.7943C21.3177 49.0235 21.7257 49.2264 22.119 49.4066C22.535 49.597 22.9612 49.7765 23.3963 49.9449C23.7764 50.0929 24.2166 50.2489 24.7088 50.4107C25.4419 50.6524 25.9077 51.335 25.9077 52.0674H25.9085V56.752C25.9085 56.9219 25.9334 57.0691 25.9832 57.1907C26.0315 57.3093 26.107 57.4199 26.2102 57.5232L26.2132 57.5269L26.2168 57.5232C26.4234 57.7298 26.679 57.8316 26.9881 57.8316H32.8672C33.0217 57.8316 33.1543 57.8096 33.2627 57.7642C33.3835 57.7144 33.508 57.6265 33.6369 57.5027C33.7409 57.3972 33.8164 57.2888 33.8633 57.1775C33.9123 57.0603 33.9372 56.9182 33.9372 56.7527V52.4637C33.9372 51.6046 34.5576 50.8912 35.3735 50.7454C35.8364 50.6356 36.2568 50.5228 36.6289 50.4085C37.05 50.2796 37.4763 50.1317 37.9076 49.9647C38.3105 49.8094 38.7367 49.63 39.1857 49.4278C39.6471 49.2191 40.0595 49.0199 40.4198 48.8324C41.1112 48.4713 41.9337 48.6214 42.4567 49.1473L42.4574 49.1458L45.7833 52.4813L45.8097 52.5091L45.8104 52.5084C45.9181 52.6219 46.0243 52.7024 46.1283 52.7471C46.2272 52.7903 46.359 52.8116 46.526 52.8116C46.6871 52.8116 46.8219 52.7874 46.9317 52.7398C47.0445 52.6915 47.1507 52.6138 47.2511 52.5084C47.2731 52.4857 47.2958 52.463 47.3185 52.441L51.4185 48.3893C51.5284 48.2691 51.609 48.1468 51.6573 48.0223C51.7064 47.8971 51.732 47.7491 51.732 47.5785C51.732 47.4049 51.7064 47.254 51.6558 47.1258C51.6082 47.0043 51.5335 46.8893 51.4317 46.7801L48.3622 43.7582C47.7506 43.1569 47.6773 42.2135 48.149 41.5309C48.3695 41.1874 48.5848 40.819 48.7957 40.4294C49.025 40.0046 49.2279 39.5966 49.408 39.2018C49.5985 38.7865 49.7779 38.3603 49.9464 37.9252C50.0943 37.5451 50.2503 37.1049 50.4129 36.6127C50.6546 35.8789 51.3372 35.4138 52.0696 35.4138V35.413H56.7534C56.9248 35.413 57.0713 35.3889 57.1929 35.3383C57.3115 35.2907 57.4221 35.2146 57.5254 35.1113L57.5291 35.1084L57.5254 35.1047C57.732 34.8982 57.8338 34.6418 57.8338 34.3335V28.4544C57.8338 28.2991 57.8111 28.1673 57.7664 28.0589C57.7166 27.938 57.6287 27.8135 57.5049 27.6846L57.5034 27.6824C57.3987 27.5791 57.291 27.5044 57.1797 27.4575C57.0633 27.4085 56.9212 27.3843 56.7542 27.3843H52.4659C51.5972 27.3843 50.8773 26.7493 50.7432 25.9187C50.6458 25.532 50.536 25.1372 50.4115 24.7351C50.2862 24.3323 50.1368 23.8995 49.9596 23.4358C49.9486 23.4065 49.9383 23.3773 49.9288 23.348C49.7669 22.9246 49.6029 22.5298 49.4359 22.1644C49.2506 21.7586 49.0543 21.366 48.847 20.9866C48.472 20.2982 48.6112 19.4669 49.1341 18.9359H49.1334L52.4688 15.5521C52.4827 15.5382 52.4959 15.525 52.5106 15.5118L52.5098 15.5111C52.6219 15.4049 52.7024 15.2987 52.7486 15.1925C52.7911 15.0951 52.813 14.9698 52.813 14.8153C52.813 14.6615 52.7889 14.5297 52.7413 14.4183C52.6863 14.2894 52.5977 14.162 52.4754 14.0368L48.357 9.92863L48.3534 9.92497L48.349 9.92863ZM49.3311 6.45478C49.8848 6.68915 50.38 7.02387 50.8165 7.46039L50.8128 7.46405L54.9349 11.5766L54.9488 11.5905C55.3824 12.0314 55.7156 12.5199 55.9434 13.0553C56.18 13.6119 56.3008 14.1979 56.3008 14.8153C56.3008 15.4415 56.1778 16.0304 55.9361 16.5834C55.7002 17.1246 55.3582 17.6036 54.9151 18.0255L52.4886 20.4864C52.5252 20.5633 52.5611 20.6417 52.5962 20.7193C52.8094 21.1873 53.0049 21.6517 53.1815 22.1131C53.1932 22.1395 53.2042 22.1673 53.2151 22.1951C53.3946 22.6653 53.5674 23.1729 53.7352 23.7127L53.7908 23.8943H56.752C57.3767 23.8943 57.9619 24.0101 58.5134 24.2408C59.0547 24.4678 59.5418 24.7996 59.9768 25.2369L60.0112 25.2713C60.4368 25.7115 60.759 26.1993 60.9817 26.7361C61.2087 27.2854 61.3215 27.8574 61.3215 28.4544V34.3342C61.3215 35.6064 60.8828 36.6801 59.9907 37.5722L59.9878 37.5685C59.5425 38.0131 59.0474 38.3464 58.4995 38.569C57.9539 38.7924 57.3723 38.9023 56.752 38.9023H53.2979C53.2635 38.9931 53.2276 39.0854 53.191 39.1784C53.0013 39.6669 52.7947 40.1562 52.5706 40.6469C52.337 41.1581 52.1004 41.6378 51.8624 42.078C51.8345 42.13 51.806 42.1835 51.7759 42.2362L53.8772 44.3038C53.9007 44.3258 53.9234 44.3492 53.9468 44.3727C54.3687 44.818 54.6866 45.3138 54.9004 45.8566C55.115 46.4007 55.2212 46.9757 55.2212 47.5777C55.2212 48.1769 55.1143 48.7481 54.9012 49.2894C54.6888 49.8299 54.3753 50.3221 53.96 50.7689L53.9593 50.7681C53.9424 50.7865 53.9241 50.8055 53.9058 50.8231L49.7669 54.9143C49.3385 55.364 48.8536 55.709 48.3094 55.9434C47.7594 56.18 47.1654 56.3008 46.5267 56.3008C45.902 56.3008 45.3116 56.1778 44.7528 55.9361C44.1991 55.6973 43.712 55.3523 43.2894 54.907L40.8754 52.4857C40.7882 52.5267 40.7025 52.5655 40.6183 52.6036C40.1708 52.805 39.686 53.0079 39.163 53.2093C38.6789 53.3975 38.1699 53.5726 37.6389 53.7352C37.5678 53.7571 37.4975 53.7791 37.4272 53.7996V56.7534C37.4272 57.3775 37.3115 57.9634 37.0808 58.5134C36.8537 59.0554 36.5212 59.5425 36.0839 59.9775L36.0495 60.012C35.6093 60.4368 35.1215 60.7598 34.5854 60.9817C34.0361 61.2095 33.4648 61.3223 32.8672 61.3223H26.9895C25.7173 61.3223 24.6429 60.8828 23.7508 59.9922L23.7537 59.9885C23.3091 59.5432 22.9759 59.0481 22.7532 58.5003C22.5306 57.9546 22.42 57.3731 22.42 56.7534V53.2979C22.3292 53.2635 22.2376 53.2276 22.1439 53.1917C21.6561 53.0013 21.1668 52.7947 20.6768 52.5706C20.1649 52.337 19.6859 52.1004 19.245 51.8624C19.1922 51.8338 19.1395 51.8052 19.0875 51.7759L17.0191 53.8765C16.9972 53.9007 16.9737 53.9234 16.9503 53.9468C16.505 54.3687 16.0084 54.6866 15.4664 54.9004C14.9222 55.115 14.3473 55.2212 13.746 55.2212C13.1454 55.2212 12.5748 55.115 12.0336 54.9019C11.4931 54.6895 11.0009 54.3753 10.5548 53.96L10.5556 53.9593C10.5365 53.9424 10.5182 53.9241 10.4999 53.9058L6.37422 49.7332C5.94063 49.2909 5.60811 48.8031 5.37959 48.2677C5.14229 47.7118 5.02218 47.1251 5.02218 46.5084C5.02218 45.8822 5.14522 45.2933 5.38692 44.7411C5.62495 44.1962 5.96919 43.715 6.41596 43.2909L8.83733 40.8761C8.79632 40.7897 8.7575 40.704 8.71941 40.6191C8.51726 40.1715 8.31512 39.6867 8.1137 39.1645C7.91815 38.6628 7.74383 38.1567 7.5871 37.6469L7.58856 37.6462L7.5871 37.6403L7.52338 37.4286H4.56954C3.94552 37.4286 3.35959 37.3137 2.80882 37.083C2.26683 36.8559 1.77977 36.5234 1.34472 36.0869L1.31029 36.0517C0.884758 35.6115 0.562495 35.1237 0.340573 34.5876C0.112792 34.0376 0 33.4648 0 32.8686V26.9888C0 26.3692 0.110595 25.7876 0.333249 25.242C0.555904 24.6963 0.886956 24.2027 1.32933 23.7588L1.3308 23.7574L1.33373 23.7544L1.33666 23.7508C1.7805 23.3084 2.27488 22.9759 2.82127 22.7532C3.36765 22.5306 3.94919 22.42 4.56881 22.42H8.02435C8.05877 22.3292 8.09466 22.2376 8.13128 22.1439C8.32098 21.6561 8.52752 21.1668 8.75164 20.6761C8.98528 20.1649 9.22112 19.6859 9.45915 19.245C9.48991 19.1886 9.52067 19.1314 9.55144 19.075L7.46185 16.9796C7.02167 16.5438 6.68622 16.0509 6.45551 15.5067C6.21748 14.9442 6.09956 14.3561 6.09956 13.7452C6.09956 13.1366 6.21748 12.5529 6.45332 11.9926C6.68696 11.4389 7.02167 10.9438 7.45892 10.5072L7.46185 10.5102L11.5744 6.38813L11.5883 6.37422C12.0292 5.94063 12.517 5.60738 13.0531 5.37886C13.6098 5.14229 14.1957 5.02144 14.8131 5.02144C15.4393 5.02144 16.0275 5.14449 16.5804 5.38619C17.1217 5.62276 17.6007 5.96406 18.0226 6.40717L20.4798 8.83001C20.5545 8.79412 20.6285 8.75969 20.7025 8.72527C21.1544 8.51653 21.6385 8.31292 22.1563 8.1137C22.6404 7.92547 23.1495 7.74969 23.6805 7.5871C23.7515 7.56586 23.8218 7.54388 23.8921 7.52338V4.56881C23.8921 3.94479 24.0079 3.35886 24.2378 2.80808C24.4649 2.26683 24.7974 1.77904 25.2339 1.34398L25.2691 1.30956C25.7093 0.884026 26.1971 0.561763 26.7339 0.339841C27.2854 0.112792 27.8574 0 28.4544 0H34.3342C34.9531 0 35.5354 0.110595 36.081 0.333249C36.6369 0.560298 37.1342 0.892083 37.5722 1.33007L37.5693 1.33373L37.5722 1.33666C38.0146 1.77831 38.3464 2.27269 38.5698 2.82127C38.7924 3.36692 38.903 3.94919 38.903 4.56808V8.02435C38.9938 8.05877 39.0861 8.09466 39.1791 8.13055C39.6669 8.32024 40.1562 8.52679 40.6469 8.75091C41.1588 8.98528 41.6378 9.22112 42.078 9.45915L42.2479 9.55144L44.3434 7.46185C44.7799 7.02094 45.2721 6.68622 45.8163 6.45551C46.3795 6.21748 46.9669 6.10029 47.5777 6.10029C48.1864 6.10176 48.7708 6.21894 49.3311 6.45478ZM30.6611 17.3978C31.5649 17.3978 32.4468 17.4842 33.3095 17.6564C34.1533 17.8248 34.9926 18.0855 35.8276 18.4378L35.8393 18.443L35.8415 18.4378C36.6303 18.7777 37.3818 19.1871 38.0951 19.6646C38.8012 20.137 39.4538 20.6702 40.0522 21.2635L40.0595 21.2708C40.6535 21.8699 41.1867 22.5233 41.6591 23.2293C42.1366 23.9427 42.5453 24.6941 42.8859 25.4822C42.9064 25.5306 42.9254 25.5796 42.9415 25.6287C43.266 26.4204 43.5077 27.2151 43.6674 28.0134C43.8395 28.8755 43.9259 29.7581 43.9259 30.6619C43.9259 31.5657 43.8395 32.4482 43.6674 33.3095C43.4989 34.1533 43.2382 34.9926 42.8859 35.8283L42.8808 35.84L42.8859 35.8415C42.546 36.6296 42.1366 37.381 41.6591 38.0944C41.1867 38.8005 40.6535 39.453 40.0595 40.0522L40.0522 40.0595C39.4538 40.6527 38.8012 41.1859 38.0944 41.6591C37.381 42.1359 36.6303 42.5453 35.8415 42.8859C35.7932 42.9064 35.7448 42.9254 35.695 42.9408C34.9033 43.2653 34.1086 43.507 33.3095 43.6666C32.4475 43.8388 31.5649 43.9252 30.6611 43.9252C29.7573 43.9252 28.8755 43.8395 28.0134 43.6666C27.1697 43.4989 26.3304 43.2382 25.4954 42.8859L25.4837 42.8808L25.4815 42.8859C24.6934 42.5453 23.9419 42.1366 23.2286 41.6591C22.5225 41.1859 21.8699 40.6527 21.2716 40.0595L21.265 40.0522C20.671 39.4538 20.1378 38.8005 19.6654 38.0944C19.1878 37.381 18.7791 36.6303 18.4393 35.8415C18.4181 35.7939 18.3998 35.7441 18.3836 35.6958C18.0592 34.904 17.8175 34.1086 17.6571 33.3095C17.485 32.4482 17.3985 31.5657 17.3985 30.6619C17.3985 29.7581 17.485 28.8762 17.6571 28.0134C17.8255 27.1697 18.0863 26.3304 18.4386 25.4954L18.443 25.4837L18.4386 25.4822C18.7784 24.6934 19.1871 23.9427 19.6646 23.2293C20.1378 22.5233 20.6702 21.8707 21.2642 21.2708L21.2708 21.2642C21.8692 20.671 22.5218 20.1378 23.2278 19.6654C23.9419 19.1878 24.6927 18.7784 25.4815 18.4386C25.5306 18.4173 25.5796 18.399 25.6294 18.3829C26.4204 18.0592 27.2151 17.8167 28.0134 17.6571C28.8748 17.4842 29.7573 17.3978 30.6611 17.3978ZM32.6277 21.0775C31.9934 20.9515 31.3379 20.8878 30.6611 20.8878C29.9844 20.8878 29.3289 20.9515 28.6946 21.0775C28.0845 21.199 27.5059 21.3712 26.9588 21.5938C26.9258 21.6099 26.8921 21.626 26.8577 21.6407C26.2388 21.908 25.6734 22.2127 25.1629 22.5547C24.6465 22.9004 24.1683 23.2916 23.7266 23.7288C23.2908 24.169 22.8997 24.648 22.554 25.1643C22.2127 25.6748 21.908 26.2403 21.6407 26.8584L21.6356 26.8562C21.3924 27.4348 21.2064 28.0471 21.0775 28.6953C20.9508 29.3296 20.887 29.9851 20.887 30.6619C20.887 31.3386 20.95 31.9941 21.0775 32.6284C21.199 33.2378 21.3712 33.8164 21.5931 34.3635C21.6099 34.3964 21.6253 34.4301 21.6407 34.4653C21.9073 35.0842 22.212 35.6481 22.554 36.1594C22.8997 36.6757 23.2908 37.154 23.7281 37.5956C24.169 38.0322 24.6473 38.4233 25.1636 38.769C25.6741 39.111 26.2395 39.4157 26.8577 39.6823L26.8555 39.6874C27.4334 39.9299 28.0457 40.1166 28.6939 40.2463C29.3281 40.3722 29.9829 40.436 30.6604 40.436C31.3371 40.436 31.9927 40.3722 32.6269 40.2463C33.237 40.1247 33.8149 39.9526 34.362 39.7306C34.3957 39.7138 34.4294 39.6977 34.4638 39.683C35.0827 39.4164 35.6474 39.1117 36.1579 38.7704C36.6743 38.424 37.1533 38.0329 37.5942 37.5964C38.0307 37.1555 38.4218 36.6765 38.7682 36.1594C39.1095 35.6496 39.4142 35.0842 39.6808 34.466L39.686 34.4675C39.9291 33.8896 40.1152 33.2773 40.2448 32.6291C40.3715 31.9949 40.4352 31.3393 40.4352 30.6626C40.4352 29.9858 40.3715 29.3303 40.2448 28.6961C40.1232 28.086 39.9511 27.5081 39.7292 26.961C39.7123 26.928 39.6962 26.8943 39.6816 26.8592C39.415 26.241 39.1103 25.6756 38.7682 25.1651C38.4225 24.648 38.0314 24.1697 37.5956 23.7295C37.1547 23.2923 36.6757 22.9012 36.1594 22.5555C35.6481 22.2134 35.0835 21.9088 34.4646 21.6414L34.4668 21.6363C33.8889 21.3931 33.2766 21.2071 32.6277 21.0775Z" fill="#FAFF04"/>
</g>
<defs>
<clipPath id="clip0">
<rect width="90" height="70.0402" fill="white"/>
</clipPath>
</defs>
</svg>
