<svg width="60" height="60" viewBox="0 0 60 60" fill="none" xmlns="http://www.w3.org/2000/svg">
<path d="M30 60C46.5685 60 60 46.5685 60 30C60 13.4315 46.5685 0 30 0C13.4315 0 0 13.4315 0 30C0 46.5685 13.4315 60 30 60Z" fill="url(#paint0_linear)"/>
<path fill-rule="evenodd" clip-rule="evenodd" d="M13.5801 29.6833C22.3257 25.873 28.1574 23.361 31.0754 22.1474C39.4067 18.682 41.1378 18.0801 42.2662 18.0603C42.5144 18.0559 43.0693 18.1174 43.4287 18.409C43.7322 18.6553 43.8157 18.988 43.8557 19.2214C43.8957 19.4549 43.9454 19.9869 43.9058 20.4024C43.4544 25.1461 41.5008 36.6579 40.5069 41.9709C40.0864 44.219 39.2584 44.9729 38.4568 45.0466C36.7146 45.2069 35.3917 43.8953 33.7043 42.7891C31.0639 41.0584 29.5723 39.9809 27.0093 38.292C24.0474 36.3401 25.9676 35.2674 27.6556 33.5141C28.0973 33.0553 35.7732 26.0734 35.9218 25.44C35.9404 25.3608 35.9577 25.0655 35.7822 24.9096C35.6068 24.7538 35.3479 24.807 35.161 24.8494C34.8963 24.9095 30.6782 27.6975 22.5069 33.2134C21.3097 34.0355 20.2252 34.4361 19.2536 34.4151C18.1824 34.3919 16.1219 33.8094 14.5902 33.3115C12.7114 32.7008 11.2182 32.3779 11.3482 31.3408C11.4159 30.8005 12.1599 30.248 13.5801 29.6833Z" fill="white"/>
<defs>
<linearGradient id="paint0_linear" x1="30" y1="0" x2="30" y2="59.555" gradientUnits="userSpaceOnUse">
<stop stop-color="#2AABEE"/>
<stop offset="1" stop-color="#229ED9"/>
</linearGradient>
</defs>
</svg>
