<svg width="60" height="60" viewBox="0 0 60 60" fill="none" xmlns="http://www.w3.org/2000/svg">
<path d="M49.7938 8.29587C48.457 7.06434 43.0459 3.13751 30.9817 3.08501C30.9817 3.08501 16.7594 2.23235 9.83249 8.59083C5.97948 12.4436 4.62151 18.0968 4.47409 25.0974C4.32667 32.0982 4.14772 45.2148 16.791 48.7732H16.8014L16.791 54.2052C16.791 54.2052 16.7068 56.4054 18.1595 56.8476C19.9071 57.3951 20.9387 55.7213 22.6125 53.9211C23.5284 52.9315 24.7916 51.4788 25.7496 50.3732C34.403 51.0998 41.0459 49.4364 41.8037 49.1944C43.5513 48.6259 53.4363 47.3625 55.0364 34.2456C56.6996 20.7075 54.2364 12.1594 49.7938 8.29587Z" fill="#834995"/>
<path d="M51.2571 33.2564C49.899 44.2044 41.8877 44.8993 40.414 45.3731C39.7823 45.573 33.9397 47.0259 26.6023 46.5522C26.6023 46.5522 21.1281 53.1527 19.4226 54.8688C18.8647 55.4266 18.2542 55.374 18.2647 54.2686C18.2647 53.5425 18.3068 45.2469 18.3068 45.2469C18.2962 45.2469 18.2962 45.2469 18.3068 45.2469C7.58999 42.278 8.22163 31.1087 8.33742 25.266C8.4532 19.4235 9.55863 14.6336 12.8221 11.4124C18.6858 6.09604 30.7605 6.88565 30.7605 6.88565C40.9614 6.92772 45.8461 10.0016 46.983 11.0333C50.7411 14.2546 52.6573 21.9607 51.2571 33.2564Z" fill="white"/>
<path d="M36.6243 24.7503C36.6664 25.6555 35.3084 25.7188 35.2663 24.8133C35.1504 22.4973 34.0661 21.371 31.8344 21.2447C30.929 21.192 31.0132 19.834 31.908 19.8868C34.8453 20.0446 36.477 21.7289 36.6243 24.7503Z" fill="#834995"/>
<path d="M38.7616 25.9391C38.8667 21.4756 36.0772 17.9806 30.7818 17.5912C29.887 17.528 29.9818 16.1699 30.8768 16.2331C36.9826 16.6754 40.2354 20.8757 40.1196 25.9708C40.109 26.8761 38.7404 26.8341 38.7616 25.9391Z" fill="#834995"/>
<path d="M43.7091 27.3501C43.7195 28.2555 42.351 28.2659 42.351 27.3607C42.2878 18.781 36.5716 14.1069 29.634 14.0543C28.7392 14.0437 28.7392 12.6963 29.634 12.6963C37.3927 12.7489 43.6353 18.1072 43.7091 27.3501Z" fill="#834995"/>
<path d="M42.5194 37.6773V37.6985C41.3825 39.6987 39.256 41.9096 37.0663 41.2042L37.0452 41.1724C34.8239 40.5515 29.5921 37.8565 26.2865 35.2246C24.5811 33.8771 23.0229 32.2875 21.8228 30.761C20.7386 29.403 19.6438 27.7922 18.5806 25.8553C16.3383 21.8023 15.8436 19.9916 15.8436 19.9916C15.1382 17.802 17.3384 15.6754 19.349 14.5385H19.3702C20.3386 14.0331 21.265 14.2016 21.8861 14.9489C21.8861 14.9489 23.1916 16.5068 23.7494 17.2756C24.2758 17.9914 24.9811 19.1387 25.3496 19.7809C25.9918 20.9283 25.5916 22.0969 24.96 22.581L23.6968 23.5917C23.0547 24.1075 23.1388 25.0655 23.1388 25.0655C23.1388 25.0655 25.0127 32.1504 32.0133 33.9401C32.0133 33.9401 32.9714 34.0244 33.4871 33.3822L34.4978 32.1189C34.9819 31.4872 36.1506 31.0873 37.298 31.7295C38.8456 32.6031 40.8141 33.9612 42.1196 35.193C42.8563 35.793 43.0247 36.709 42.5194 37.6773Z" fill="#834995"/>
</svg>
