<svg width="60" height="60" viewBox="0 0 60 60" fill="none" xmlns="http://www.w3.org/2000/svg">
<path d="M30 1.52344C14.2734 1.52344 1.52344 14.2734 1.52344 30C1.52344 35.7539 3.23438 41.1211 6.17578 45.5977L2.50781 58.0195L15.4102 54.4453C19.6758 57 24.668 58.4648 30 58.4648C45.7266 58.4648 58.4766 45.7148 58.4766 29.9883C58.4766 14.2734 45.7266 1.52344 30 1.52344Z" fill="#25D366"/>
<path d="M45.6447 37.8161C45.6095 37.4411 45.3869 37.113 45.047 36.9606C42.7502 35.9059 40.4416 34.8512 38.1447 33.7965C37.8869 33.6794 37.5705 33.738 37.383 33.9606L34.2658 37.4762C34.0197 37.7575 33.633 37.8512 33.2931 37.7106C31.676 37.0426 29.4963 35.9176 27.2931 34.0192C24.6564 31.7575 23.1095 29.3317 22.2424 27.7497C22.676 27.4567 23.8595 26.5778 24.3869 24.9489C24.3869 24.9372 24.3986 24.9255 24.3986 24.9255C24.7267 23.9176 24.6564 22.8278 24.2931 21.8317C23.672 20.1794 22.4299 16.9801 21.9494 16.488C21.8674 16.4059 21.7736 16.3239 21.7736 16.3239C21.422 16.0075 20.965 15.8317 20.4845 15.8083C20.3205 15.7965 20.1447 15.7965 19.9572 15.7965C19.4181 15.7848 18.9377 15.7848 18.5861 15.8317C17.59 15.9723 16.8634 16.6403 16.4064 17.2028C15.8556 17.8708 15.1994 18.8669 14.7658 20.1794C14.7306 20.2965 14.6955 20.402 14.6603 20.5192C14.1799 22.1833 14.2736 23.9645 14.8478 25.6051C15.3869 27.1403 16.172 28.9684 17.3556 30.902C19.3595 34.195 21.5392 36.234 23.0158 37.5817C24.6799 39.1169 26.7424 41.0036 30.0119 42.5739C33.0353 44.027 35.7775 44.5661 37.6174 44.7887C38.3674 44.859 39.7502 44.8708 41.3322 44.2731C42.0588 43.9919 42.6681 43.652 43.1603 43.2887C44.4611 42.363 45.3752 40.9684 45.6095 39.3981C45.6095 39.3864 45.6095 39.3747 45.6095 39.363C45.6916 38.7653 45.6799 38.2497 45.6447 37.8161Z" fill="white"/>
</svg>
