<svg width="60" height="60" viewBox="0 0 60 60" fill="none" xmlns="http://www.w3.org/2000/svg">
<path d="M30 60C13.434 60 0 46.566 0 30C0 13.434 13.434 0 30 0C46.566 0 60 13.434 60 30C60 46.566 46.566 60 30 60Z" fill="#FF0000"/>
<path d="M49.0921 20.346C48.6361 18.618 47.2861 17.262 45.5701 16.8C42.4621 15.96 30.0061 15.96 30.0061 15.96C30.0061 15.96 17.5441 15.96 14.4421 16.8C12.7261 17.262 11.3761 18.618 10.9201 20.346C10.0801 23.472 10.0801 30 10.0801 30C10.0801 30 10.0801 36.528 10.9141 39.654C11.3701 41.382 12.7201 42.738 14.4361 43.2C17.5441 44.04 30.0001 44.04 30.0001 44.04C30.0001 44.04 42.4621 44.04 45.5641 43.2C47.2801 42.738 48.6301 41.382 49.0861 39.654C49.9201 36.528 49.9201 30 49.9201 30C49.9201 30 49.9201 23.472 49.0921 20.346ZM25.9261 35.922V24.078L36.3361 30L25.9261 35.922Z" fill="white"/>
</svg>
