<?xml version="1.0" standalone="no"?>
<!DOCTYPE svg PUBLIC "-//W3C//DTD SVG 20010904//EN"
 "http://www.w3.org/TR/2001/REC-SVG-20010904/DTD/svg10.dtd">
<svg version="1.0" xmlns="http://www.w3.org/2000/svg"
 width="260.000000pt" height="260.000000pt" viewBox="0 0 260.000000 260.000000"
 preserveAspectRatio="xMidYMid meet">
<metadata>
Created by potrace 1.14, written by Peter Selinger 2001-2017
</metadata>
<g transform="translate(0.000000,260.000000) scale(0.100000,-0.100000)"
fill="#000000" stroke="none">
<path d="M250 2124 c0 -4 361 -979 370 -1002 9 -21 15 -23 72 -20 56 3 62 5
69 28 4 14 86 238 183 498 97 261 176 479 176 485 0 15 -126 16 -139 1 -5 -5
-18 -36 -29 -69 -11 -33 -57 -166 -102 -295 -45 -129 -97 -282 -117 -340 -20
-58 -39 -109 -43 -113 -5 -5 -15 13 -23 40 -15 48 -78 231 -201 587 -36 104
-68 191 -71 194 -5 5 -145 10 -145 6z"/>
<path d="M1494 1571 c-2 -2 -4 -233 -4 -513 l0 -509 67 3 67 3 1 235 0 235
257 0 258 0 0 -237 0 -238 68 0 67 0 0 510 c0 333 -3 510 -10 511 -5 1 -36 2
-67 3 l-58 1 0 -220 0 -221 -255 0 c-140 1 -256 4 -256 8 -1 5 -3 98 -4 208
-1 110 -3 206 -4 213 -1 9 -20 12 -62 12 -33 0 -63 -2 -65 -4z"/>
</g>
</svg>
